<svg xmlns="http://www.w3.org/2000/svg" viewBox="0 0 20 27.421">
  <defs>
    <style>
      .cls-1 {
        fill: #3597fa;
      }
    </style>
  </defs>
  <g id="Password" transform="translate(-1169.531 -491)">
    <path id="Path_48" data-name="Path 48" class="cls-1" d="M18.333,11.883h-1.25V8c0-4.41-3.271-8-7.292-8S2.5,3.588,2.5,8v3.885H1.667A1.753,1.753,0,0,0,0,13.711V25.593a1.753,1.753,0,0,0,1.667,1.828H18.333A1.753,1.753,0,0,0,20,25.593V13.711A1.753,1.753,0,0,0,18.333,11.883Zm-7.083,9.6A1.313,1.313,0,0,1,10,22.851,1.313,1.313,0,0,1,8.75,21.48V17.824A1.313,1.313,0,0,1,10,16.453a1.313,1.313,0,0,1,1.25,1.371ZM5,11.883V8A5.046,5.046,0,0,1,9.792,2.742,5.046,5.046,0,0,1,14.583,8v3.885Z" transform="translate(1169.531 491)"/>
  </g>
</svg>
