<svg xmlns="http://www.w3.org/2000/svg" viewBox="0 0 32 32.111">
  <defs>
    <style>
      .cls-1 {
        fill: none;
      }

      .cls-2 {
        fill: #3597fa;
      }
    </style>
  </defs>
  <g id="UserID" transform="translate(-1163.689 -354)">
    <g id="Group_18" data-name="Group 18" transform="translate(1163.689 354)">
      <path id="Path_20" data-name="Path 20" class="cls-1" d="M20.556,4.5A16.022,16.022,0,0,0,4.5,20.429a15.852,15.852,0,0,0,4.845,11.4c2.986-1.453,6.76-1.509,7.493-3.689V25.683a6.487,6.487,0,0,1-2.31-3.633c-.451-.056-1.127-.447-1.352-2.012a1.425,1.425,0,0,1,.563-1.453,6.972,6.972,0,0,1-.676-2.739c0-4.024,2.2-7.378,7.436-7.378a3.982,3.982,0,0,1,3.718,1.844c2.535,0,3.718,2.571,3.718,5.533a6.313,6.313,0,0,1-.676,2.739,1.382,1.382,0,0,1,.563,1.453c-.225,1.565-.9,1.956-1.352,2.012a6.487,6.487,0,0,1-2.31,3.633v2.459c.732,2.18,4.507,2.236,7.493,3.689A15.9,15.9,0,0,0,20.556,4.5Z" transform="translate(-4.5 -4.5)"/>
      <path id="Path_21" data-name="Path 21" class="cls-2" d="M27.815,31.3V28.834A6.507,6.507,0,0,0,30.078,25.2c.442-.056,1.1-.448,1.325-2.014a1.439,1.439,0,0,0-.552-1.455,6.426,6.426,0,0,0,.662-2.742c0-2.966-1.159-5.54-3.643-5.54A3.89,3.89,0,0,0,24.228,11.6c-5.133,0-7.285,3.357-7.285,7.386a7.472,7.472,0,0,0,.662,2.742,1.4,1.4,0,0,0-.552,1.455c.221,1.567.883,1.958,1.325,2.014a6.507,6.507,0,0,0,2.263,3.637V31.3c-.717,2.182-4.415,2.238-7.34,3.693a15.574,15.574,0,0,0,21.966,0C32.231,33.534,28.533,33.478,27.815,31.3Z" transform="translate(-8.107 -7.41)"/>
    </g>
  </g>
</svg>
