<svg xmlns="http://www.w3.org/2000/svg" viewBox="0 0 33.393 22.24">
  <defs>
    <style>
      .cls-1 {
        opacity: 0.3;
      }

      .cls-2 {
        fill: #262a33;
        fill-rule: evenodd;
      }
    </style>
  </defs>
  <g id="View_password" data-name="View password" transform="translate(-1580.816 -494)">
    <g id="if_eye-24_103177" class="cls-1" transform="translate(1580.816 494)">
      <g id="Group_17" data-name="Group 17" transform="translate(0 0)">
        <path id="Path_19" data-name="Path 19" class="cls-2" d="M16.685,4C5.652,4-.012,15.12-.012,15.12s4.274,11.12,16.7,11.12c11.249,0,16.7-11.077,16.7-11.077S27.891,4,16.685,4Zm.025,18.07a6.787,6.787,0,0,1-6.95-6.95,6.786,6.786,0,0,1,6.95-6.95,6.786,6.786,0,0,1,6.95,6.95A6.787,6.787,0,0,1,16.71,22.07Zm0-11.12a4.17,4.17,0,1,0,4.17,4.17A4.217,4.217,0,0,0,16.71,10.95Z" transform="translate(0.012 -4)"/>
      </g>
    </g>
  </g>
</svg>
